<?xml version="1.0" encoding="UTF-8"?>
<svg width="752pt" height="752pt" version="1.1" viewBox="0 0 752 752" xmlns="http://www.w3.org/2000/svg">
 <path d="m257.88 226.03c-18.934 21.816-37.867 40.734-40.531 67.254 0.62891 50.27 42.793 101.88 90.676 149.73 23.664 23.648 49.387 47.371 74.996 64.887 25.609 17.516 51.504 29.961 77.512 26.016h0.29688c24.047-4.0898 44.199-20.852 65.086-40.648 11.879-13.973 11.355-34.969 0.14844-46.559l-40.086-40.055c-13.574-11.148-31.734-12.016-45.855-4.7305-9.4375 6.8281-19.16 13.914-28.695 20.84-4.3047-1.1914-9.7852-4.2812-13.609-6.9492-10.375-7.418-22.648-19.527-32.691-29.562-10.316-10.309-22.559-21.922-29.879-31.781-3.7773-4.0938-6.0508-10.602-6.5078-14.633 6.8828-9.4688 14.207-19.262 20.855-28.676 7.6914-16.02 5.8906-34.395-4.5859-45.23l-39.793-39.906c-15.223-12.844-33.238-10.227-47.336 0zm27.219 20.102 39.793 39.762c1.918 3.8086 0.89062 7.4453-0.29688 11.676l-18.785 25.422c-9.9805 17.574-3.6602 34.488 6.6562 48.48 9.7812 13.168 22.789 25.137 32.543 34.883 10.074 10.066 22.988 23.082 36.391 32.664 13.93 9.9375 33.359 16.449 46.742 6.5039 8.7852-6.0742 18.16-13.086 25.738-18.625 4.4609-1.8398 7.6172-1.5938 11.98-0.14844l40.086 40.055c1.1445 1.8867 0.37109 5.1875 0.29688 5.9141-19.621 18.594-37.051 30.848-49.996 33.109h-0.14844c-13.375 1.957-34.172-5.6016-57.098-21.285-23-15.73-47.762-38.562-70.855-61.637-45.605-45.57-81.047-95.949-82.246-128.74 2.7383-12.766 14.637-29.727 32.543-48.629 2.4102-1.082 4.1719-0.27344 6.6562 0.58984z"/>
</svg>
