<?xml version="1.0" encoding="UTF-8"?>
<svg width="752pt" height="752pt" version="1.1" viewBox="0 0 752 752" xmlns="http://www.w3.org/2000/svg">
 <path d="m376 482.12c-18.965 0-37.152-7.5352-50.562-20.945-13.414-13.41-20.945-31.598-20.945-50.566 0-18.965 7.5312-37.152 20.945-50.562 13.41-13.414 31.598-20.945 50.562-20.945 18.969 0 37.156 7.5312 50.566 20.945 13.41 13.41 20.945 31.598 20.945 50.562-0.015625 18.961-7.5547 37.141-20.961 50.551-13.41 13.406-31.59 20.945-50.551 20.961zm0-113.6c-11.164 0-21.875 4.4336-29.773 12.332-7.8945 7.8945-12.332 18.605-12.332 29.773s4.4375 21.879 12.332 29.773c7.8984 7.8945 18.609 12.332 29.773 12.332 11.168 0 21.879-4.4375 29.773-12.332 7.8984-7.8945 12.336-18.605 12.336-29.773-0.011719-11.164-4.4531-21.867-12.348-29.762s-18.598-12.332-29.762-12.344zm150.52 181.71h-301.03c-16.598-0.019531-32.508-6.6211-44.242-18.355s-18.336-27.645-18.355-44.242v-154.01c0.019531-16.598 6.6211-32.508 18.355-44.242s27.645-18.336 44.242-18.355h37.887c3.3828-0.003907 6.4062-2.1133 7.5781-5.2852 0.14844-0.40234 0.3125-0.80078 0.47266-1.1875l18.242-38.883c2.7461-7.0273 7.5469-13.062 13.773-17.324 6.2266-4.2617 13.59-6.5508 21.133-6.5664h103.93c7.543 0.015625 14.91 2.3047 21.137 6.5664 6.2266 4.2617 11.027 10.297 13.773 17.324l18.242 38.883c0.17969 0.38672 0.34766 0.78516 0.47266 1.1875h0.003907c1.1719 3.1719 4.1953 5.2812 7.5781 5.2852h36.793-0.003906c16.598 0.015624 32.512 6.6172 44.25 18.352 11.734 11.738 18.34 27.648 18.359 44.246v154.01c-0.019531 16.598-6.6211 32.508-18.355 44.242-11.734 11.734-27.648 18.336-44.242 18.355zm-301.03-249.81c-8.8047 0.007813-17.246 3.5117-23.469 9.7383-6.2266 6.2227-9.7305 14.664-9.7383 23.469v154.01c0.007812 8.8047 3.5117 17.246 9.7383 23.469 6.2227 6.2266 14.664 9.7305 23.469 9.7383h301.03c8.8047-0.007813 17.242-3.5117 23.469-9.7383 6.2266-6.2227 9.7266-14.664 9.7383-23.469v-154.01c-0.011718-8.8047-3.5117-17.246-9.7383-23.469-6.2266-6.2266-14.664-9.7305-23.469-9.7383h-36.793c-7.5469-0.019531-14.91-2.3086-21.137-6.5664-6.2266-4.2617-11.023-10.301-13.77-17.328l-18.242-38.883c-0.18359-0.38672-0.35156-0.78516-0.47266-1.1875l-0.003906 0.003906c-1.1719-3.1758-4.1953-5.2812-7.5742-5.2852h-103.95c-3.3828 0-6.4062 2.1094-7.5781 5.2852-0.15234 0.40234-0.3125 0.80078-0.47266 1.1875l-18.242 38.883v-0.003907c-2.7461 7.0273-7.5469 13.066-13.77 17.328-6.2266 4.2578-13.594 6.5469-21.137 6.5664z"/>
</svg>
