<?xml version="1.0" encoding="UTF-8"?>
<svg width="752pt" height="752pt" version="1.1" viewBox="0 0 752 752" xmlns="http://www.w3.org/2000/svg">
 <path d="m376 588.96c42.695 0.17969 84.516-12.113 120.32-35.371l113.21 47.359-42.918-121.36c20.031-33.879 30.562-72.527 30.488-111.88-0.039063-58.633-23.367-114.85-64.848-156.29-41.48-41.434-97.723-64.695-156.36-64.672-58.633 0.027344-114.85 23.34-156.3 64.812-41.445 41.473-64.719 97.711-64.707 156.34 0.011718 58.633 23.312 114.86 64.777 156.31 41.465 41.453 97.695 64.742 156.32 64.742zm0-412.61c50.719 0.23047 99.293 20.484 135.16 56.348s56.117 84.438 56.348 135.16c0.09375 36.164-10.176 71.602-29.598 102.11l-3.8477 6.0664 25.309 71.48-66.449-27.824-6.8086 4.2969c-32.129 22.961-70.617 35.324-110.11 35.371-50.789 0-99.5-20.176-135.41-56.09-35.914-35.914-56.09-84.625-56.09-135.41 0-50.793 20.176-99.5 56.09-135.41 35.914-35.914 84.625-56.09 135.41-56.09z"/>
</svg>
