<?xml version="1.0" encoding="UTF-8"?>
<svg width="752pt" height="752pt" version="1.1" viewBox="0 0 752 752" xmlns="http://www.w3.org/2000/svg">
 <path d="m539.39 364.67c0-90.09-73.297-163.39-163.39-163.39s-163.39 73.297-163.39 163.39 73.297 163.39 163.39 163.39c15.258 0 30.359-2.1016 45.09-6.3086l0.37891-0.11328 80.836 28.406c1.2891 0.45312 2.6133 0.67188 3.9258 0.67188h0.12891c6.5195-0.019532 11.801-5.3125 11.801-11.84 0-2.875-1.0234-5.5117-2.7227-7.5586l-29.664-45.625c34.176-30.98 53.613-74.637 53.613-121.02zm-79.152 125.17 17.125 26.34-51.691-18.16c-1.2734-0.44531-2.6016-0.67188-3.9258-0.67188-1.1562 0-2.3164 0.17188-3.4414 0.51172l-3.8867 1.1836c-12.426 3.5469-25.352 5.3438-38.406 5.3438-77.039 0-139.71-62.672-139.71-139.71 0-77.031 62.668-139.71 139.71-139.71 77.039 0 139.71 62.672 139.71 139.71 0 41.992-18.641 81.371-50.93 107.88l-1.9258 1.5117c-4.832 3.7812-5.9688 10.625-2.625 15.766z"/>
</svg>
