<?xml version="1.0" encoding="UTF-8"?>
<svg width="752pt" height="752pt" version="1.1" viewBox="0 0 752 752" xmlns="http://www.w3.org/2000/svg">
 <path d="m590.41 194.04c-2.6602-4.6094-7.5781-7.4492-12.898-7.4492h-403.02c-4.2383 0-8.2734 1.8008-11.098 4.9609-2.8281 3.1562-4.1758 7.3672-3.707 11.578 0.46875 4.2109 2.707 8.0234 6.1562 10.484l174.8 124.63 20.531 213.69c0.40625 4.2188 2.5859 8.0664 6 10.578s7.7344 3.4492 11.883 2.582c4.1484-0.87109 7.7305-3.4648 9.8477-7.1367l201.51-349.03v-0.003906c1.3086-2.2617 1.9961-4.8281 1.9961-7.4414s-0.6875-5.1836-1.9961-7.4453zm-369.39 22.34h300.91l-166.26 95.988zm165.34 286.38-15.816-164.58 166.28-95.992z"/>
</svg>
