<?xml version="1.0" encoding="UTF-8"?>
<svg width="752pt" height="752pt" version="1.1" viewBox="0 0 752 752" xmlns="http://www.w3.org/2000/svg">
 <path d="m251.28 416.36-16.512 83.688c-0.94141 4.7852 0.56641 9.7266 4.0156 13.176 3.4492 3.4492 8.3867 4.9531 13.176 4.0156l83.688-16.516c2.8438-0.55859 5.4609-1.9531 7.5156-4.0039l235.87-235.84c6.457-6.4609 10.086-15.219 10.086-24.355 0-9.1328-3.6289-17.895-10.086-24.352l-39.168-39.191c-6.457-6.457-15.219-10.086-24.352-10.086-9.1367 0-17.895 3.6289-24.355 10.086l-235.87 235.87c-2.0508 2.0547-3.4453 4.668-4.0078 7.5156zm260.57-222.69c2.0234-2.0156 5.2969-2.0156 7.3164 0l39.168 39.168c2.0156 2.0156 2.0156 5.2891 0 7.3086l-29.727 29.73-46.477-46.477zm-232.72 232.72 182.3-182.29 46.477 46.477-182.29 182.29-57.902 11.426zm307.75-86.191v170.06h0.003906c-0.023437 20.906-8.3398 40.945-23.121 55.73-14.781 14.781-34.82 23.098-55.727 23.121h-266.29c-20.906-0.023437-40.945-8.3398-55.727-23.121-14.785-14.781-23.098-34.82-23.121-55.727v-266.29c0.023437-20.906 8.3359-40.945 23.121-55.727 14.781-14.781 34.82-23.098 55.727-23.121h170.06c5.2266 0 10.059 2.7891 12.672 7.3164 2.6133 4.5273 2.6133 10.105 0 14.633-2.6133 4.5273-7.4453 7.3203-12.672 7.3203h-170.06c-13.145 0.015625-25.746 5.2422-35.043 14.539-9.293 9.293-14.523 21.895-14.539 35.039v266.29c0.015625 13.145 5.2461 25.746 14.539 35.039 9.2969 9.2969 21.898 14.523 35.043 14.539h266.29c13.145-0.015625 25.746-5.2422 35.039-14.539 9.293-9.293 14.523-21.895 14.539-35.039v-170.06c0-5.2266 2.7891-10.059 7.3164-12.672 4.5273-2.6133 10.105-2.6133 14.637 0 4.5273 2.6133 7.3164 7.4453 7.3164 12.672z"/>
</svg>
