<?xml version="1.0" encoding="UTF-8"?>
<svg width="752pt" height="752pt" version="1.1" viewBox="0 0 752 752" xmlns="http://www.w3.org/2000/svg">
 <path d="m509.84 162.89h-267.69c-21.016 0.023437-41.164 8.3828-56.023 23.242-14.859 14.859-23.219 35.008-23.242 56.023v267.69c-0.011719 21.027 8.3359 41.199 23.203 56.066 14.867 14.867 35.039 23.215 56.062 23.203h267.69c21.016-0.023437 41.168-8.3828 56.027-23.242s23.219-35.012 23.242-56.027v-267.69c-0.023437-21.016-8.3828-41.164-23.242-56.023-14.863-14.859-35.012-23.219-56.027-23.242zm-267.69 29.422h267.69c13.215 0.015625 25.887 5.2695 35.23 14.617 9.3438 9.3438 14.602 22.012 14.613 35.227v144.32l-70.117-68.555c-2.7695-2.707-6.4922-4.2148-10.367-4.1914-3.8711 0.019531-7.5781 1.5664-10.316 4.3047l-131.56 131.56-65.605-64.293c-2.7695-2.7148-6.4961-4.2266-10.371-4.2031-3.875 0.019531-7.5898 1.5703-10.328 4.3125l-58.723 58.723v-201.98c0.011719-13.215 5.2695-25.887 14.617-35.234 9.3477-9.3438 22.023-14.598 35.238-14.609zm267.69 367.38h-267.69c-13.223 0.011719-25.906-5.2383-35.254-14.586-9.3516-9.3516-14.598-22.035-14.59-35.258v-24.109l69.219-69.219 65.602 64.293c2.7695 2.7148 6.4961 4.2227 10.371 4.2031 3.8789-0.019531 7.5898-1.5703 10.328-4.3125l131.57-131.56 80.285 78.484v82.215c-0.007812 13.215-5.2656 25.891-14.609 35.234-9.3438 9.3477-22.016 14.605-35.234 14.617zm-258.02-265.17c11.707 0 22.934-4.6484 31.211-12.926s12.926-19.504 12.926-31.211c0-11.707-4.6484-22.934-12.926-31.211-8.2773-8.2773-19.504-12.926-31.211-12.926s-22.934 4.6484-31.211 12.926c-8.2773 8.2773-12.926 19.504-12.926 31.211 0.011719 11.703 4.6641 22.922 12.941 31.195 8.2734 8.2773 19.492 12.93 31.195 12.941zm0-58.848c3.9023 0 7.6445 1.5508 10.406 4.3125 2.7578 2.7578 4.3086 6.5039 4.3086 10.406 0 3.9023-1.5508 7.6445-4.3125 10.402-2.7617 2.7617-6.5039 4.3086-10.406 4.3086-3.9023 0-7.6445-1.5508-10.402-4.3125-2.7617-2.7617-4.3086-6.5039-4.3086-10.406 0.003906-3.8984 1.5586-7.6406 4.3164-10.398 2.7578-2.7578 6.4961-4.3086 10.398-4.3125z"/>
</svg>
