<?xml version="1.0" encoding="UTF-8"?>
<svg width="752pt" height="752pt" version="1.1" viewBox="0 0 752 752" xmlns="http://www.w3.org/2000/svg">
 <path d="m555.25 589.11h-115.23c-6.4258-0.007812-12.582-2.5664-17.125-7.1094-4.543-4.543-7.0977-10.699-7.1055-17.125v-122.23c0-14.051-7.4961-27.031-19.664-34.055-12.164-7.0273-27.156-7.0273-39.324 0-12.168 7.0234-19.664 20.004-19.664 34.055v122.23c-0.007812 6.4258-2.5625 12.586-7.1055 17.129-4.5469 4.543-10.707 7.0977-17.133 7.1055h-116.14c-3.8906 0-7.625-1.5469-10.379-4.3008s-4.3008-6.4883-4.3008-10.379v-258.76c0-4.5547 2.1133-8.8516 5.7227-11.629l179.24-138.1c2.5703-1.9805 5.7227-3.0547 8.9648-3.0547 3.2461 0 6.3984 1.0742 8.9648 3.0547l179.25 138.1c3.6094 2.7773 5.7227 7.0742 5.7227 11.629v258.76c0 3.8945-1.5469 7.6289-4.3008 10.383-2.7578 2.75-6.4922 4.2969-10.387 4.2969zm-110.1-29.363h95.418v-236.85l-164.56-126.79-164.56 126.79v236.85h96.312v-117.1c0-24.543 13.094-47.223 34.348-59.492 21.258-12.273 47.445-12.273 68.699 0 21.254 12.27 34.348 34.949 34.348 59.492z"/>
</svg>
