<?xml version="1.0" encoding="UTF-8"?>
<svg width="752pt" height="752pt" version="1.1" viewBox="0 0 752 752" xmlns="http://www.w3.org/2000/svg">
 <path d="m281.14 377.63c0.34766 3.9961 1.9531 7.7773 4.5898 10.805l151.55 175.23-0.003906-0.003906c3.2383 3.9883 7.957 6.4883 13.074 6.9297 5.1172 0.44141 10.195-1.2148 14.07-4.5859s6.2109-8.1719 6.4805-13.301c0.26562-5.1289-1.5586-10.148-5.0586-13.906l-140.74-162.79 140.74-162.79c3.5-3.7578 5.3242-8.7773 5.0586-13.906-0.26953-5.1289-2.6055-9.9297-6.4805-13.301s-8.9531-5.0273-14.07-4.5859c-5.1172 0.44141-9.8359 2.9453-13.074 6.9297l-151.55 175.23h0.003906c-3.3711 3.8711-5.0273 8.9453-4.5898 14.059z"/>
</svg>
