<?xml version="1.0" encoding="UTF-8"?>
<svg width="752pt" height="752pt" version="1.1" viewBox="0 0 752 752" xmlns="http://www.w3.org/2000/svg">
 <path d="m376 557.34c-3.9062 0-7.6562-1.5508-10.418-4.3164l-170.49-170.49c-20.641-20.633-32.238-48.617-32.242-77.801-0.007812-29.184 11.578-57.172 32.211-77.812 20.629-20.641 48.613-32.242 77.797-32.25h0.027344c29.203-0.082031 57.219 11.523 77.812 32.227l25.301 25.281 25.281-25.281c20.652-20.609 48.637-32.18 77.812-32.18s57.16 11.57 77.816 32.18c20.633 20.641 32.227 48.629 32.227 77.812 0 29.188-11.594 57.176-32.227 77.816l-170.49 170.49c-2.7617 2.7656-6.5117 4.3242-10.422 4.3242zm-103.14-333.23c-21.375 0.003906-41.875 8.5-56.988 23.617-15.113 15.117-23.602 35.617-23.602 56.996 0.003907 21.375 8.4961 41.875 23.613 56.988l160.12 160.09 160.07-160.09c15.113-15.117 23.605-35.621 23.605-57 0-21.375-8.4922-41.879-23.605-57-15.129-15.094-35.625-23.57-56.996-23.57-21.371 0-41.867 8.4766-57 23.57l-35.688 35.688v0.003907c-2.7617 2.7656-6.5078 4.3242-10.418 4.3242s-7.6602-1.5586-10.418-4.3242l-35.672-35.691c-15.082-15.164-35.605-23.66-56.996-23.602z"/>
</svg>
