<?xml version="1.0" encoding="UTF-8"?>
<svg width="752pt" height="752pt" version="1.1" viewBox="0 0 752 752" xmlns="http://www.w3.org/2000/svg">
 <path d="m277.34 376c0 16.348-13.254 29.602-29.602 29.602-16.344 0-29.598-13.254-29.598-29.602 0-16.344 13.254-29.598 29.598-29.598 16.348 0 29.602 13.254 29.602 29.598zm128.26 0c0 16.348-13.254 29.602-29.602 29.602-16.344 0-29.598-13.254-29.598-29.602 0-16.344 13.254-29.598 29.598-29.598 16.348 0 29.602 13.254 29.602 29.598zm98.66 29.602c16.348 0 29.602-13.254 29.602-29.602 0-16.344-13.254-29.598-29.602-29.598-16.344 0-29.598 13.254-29.598 29.598 0 16.348 13.254 29.602 29.598 29.602z" fill-rule="evenodd"/>
</svg>
