<?xml version="1.0" encoding="UTF-8"?>
<svg width="752pt" height="752pt" version="1.1" viewBox="0 0 752 752" xmlns="http://www.w3.org/2000/svg">
 <path d="m512.04 313.02v53.387c-0.042968 33.523-12.445 65.855-34.836 90.809-22.391 24.953-53.195 40.773-86.52 44.43v57.926h26.344c5.2539 0 10.105 2.8008 12.734 7.3516 2.625 4.5469 2.625 10.152 0 14.703-2.6289 4.5469-7.4805 7.3516-12.734 7.3516h-82.07c-5.2539 0-10.105-2.8047-12.734-7.3516-2.625-4.5508-2.625-10.156 0-14.703 2.6289-4.5508 7.4805-7.3516 12.734-7.3516h26.363v-57.926c-33.324-3.6562-64.129-19.477-86.52-44.43-22.391-24.953-34.793-57.285-34.836-90.809v-53.387c0-5.2539 2.8008-10.105 7.3516-12.73 4.5469-2.625 10.152-2.625 14.699 0s7.3477 7.4766 7.3477 12.73v53.387c0 38.098 20.328 73.301 53.32 92.348 32.992 19.051 73.641 19.051 106.64 0 32.992-19.047 53.316-54.25 53.316-92.348v-53.387c0-5.2539 2.8008-10.105 7.3516-12.73 4.5469-2.625 10.152-2.625 14.699 0s7.3516 7.4766 7.3516 12.73zm-232.59 53.387v-106.82c0-34.496 18.402-66.371 48.273-83.617 29.875-17.25 66.684-17.25 96.555 0 29.875 17.246 48.277 49.121 48.277 83.617v106.82c0 34.496-18.402 66.371-48.277 83.617-29.871 17.246-66.68 17.246-96.555 0-29.871-17.246-48.273-49.121-48.273-83.617zm29.406 0h-0.003907c0 23.988 12.801 46.156 33.574 58.152 20.777 11.996 46.375 11.996 67.148 0 20.777-11.996 33.578-34.164 33.578-58.152v-106.82c0-23.992-12.801-46.156-33.578-58.152-20.773-11.996-46.371-11.996-67.148 0-20.773 11.996-33.574 34.16-33.574 58.152z"/>
</svg>
