<?xml version="1.0" encoding="UTF-8"?>
<svg width="752pt" height="752pt" version="1.1" viewBox="0 0 752 752" xmlns="http://www.w3.org/2000/svg">
 <path d="m570.87 273.93c-5.4492-2.6016-11.527-3.582-17.516-2.8281-5.9922 0.75781-11.637 3.2188-16.266 7.0898l-35.852 29.676v-49.371c-0.015625-13.699-5.4609-26.832-15.148-36.516-9.6875-9.6875-22.82-15.137-36.52-15.152h-235c-13.699 0.015625-26.832 5.4609-36.52 15.148s-15.137 22.82-15.152 36.52v235c0.015625 13.703 5.4648 26.836 15.152 36.523 9.6836 9.6875 22.82 15.137 36.52 15.152h235c13.699-0.015625 26.836-5.4648 36.52-15.152 9.6875-9.6875 15.137-22.824 15.148-36.523v-49.039l35.652 30v0.003906c5.6836 4.832 12.902 7.4922 20.363 7.5117 4.6641-0.011718 9.2695-1.0391 13.492-3.0195 5.5117-2.5234 10.176-6.582 13.434-11.691 3.2578-5.1094 4.9727-11.051 4.9375-17.109v-147.48c0.035157-6.0352-1.668-11.953-4.9023-17.051-3.2344-5.0977-7.8672-9.1562-13.344-11.695zm-99.02 219.57c-0.003906 5.9062-2.3516 11.566-6.5234 15.742-4.1719 4.1797-9.8281 6.5312-15.734 6.5469h-235.03c-5.9102-0.007812-11.574-2.3555-15.754-6.5352-4.1758-4.1797-6.5273-9.8438-6.5312-15.754v-235c0.011718-5.9023 2.3672-11.562 6.543-15.734 4.1758-4.1719 9.8398-6.5156 15.742-6.5234h235c5.8984 0.015625 11.555 2.3633 15.727 6.5352 4.168 4.1719 6.5195 9.8242 6.5312 15.723zm87.902-43.344c0.015625 0.93359-0.51953 1.7891-1.3672 2.1836-0.84766 0.39062-1.8477 0.25-2.5547-0.36328l-54.57-45.938v-60.016l54.562-45.184c0.70703-0.60547 1.7031-0.74219 2.5469-0.34375 0.84375 0.39453 1.375 1.25 1.3594 2.1797zm-266.62 41.871h-61.566c-7.8477 0-14.207-6.3594-14.207-14.207 0-7.8438 6.3594-14.207 14.207-14.207h61.566c7.8477 0 14.207 6.3633 14.207 14.207 0 7.8477-6.3594 14.207-14.207 14.207z"/>
</svg>
