<?xml version="1.0" encoding="UTF-8"?>
<svg width="752pt" height="752pt" version="1.1" viewBox="0 0 752 752" xmlns="http://www.w3.org/2000/svg">
 <path d="m509.85 162.89h-267.7c-21.016 0.023437-41.16 8.3828-56.02 23.242-14.859 14.859-23.219 35.004-23.242 56.02v267.7c0.023437 21.016 8.3828 41.164 23.242 56.023 14.859 14.859 35.004 23.219 56.02 23.242h267.7c21.016-0.023437 41.164-8.3828 56.023-23.242s23.219-35.008 23.242-56.023v-267.7c-0.023437-21.016-8.3828-41.16-23.242-56.02-14.859-14.859-35.008-23.219-56.023-23.242zm49.84 346.96c-0.011719 13.215-5.2695 25.883-14.613 35.227s-22.012 14.602-35.227 14.613h-267.7c-13.211-0.011719-25.883-5.2695-35.223-14.613-9.3438-9.3438-14.602-22.012-14.617-35.227v-267.7c0.015625-13.211 5.2734-25.883 14.617-35.223 9.3398-9.3438 22.012-14.602 35.223-14.617h267.7c13.215 0.015625 25.883 5.2734 35.227 14.617 9.3438 9.3398 14.602 22.012 14.613 35.223zm-68.453-133.85c0 3.9023-1.5508 7.6445-4.3086 10.402-2.7578 2.7617-6.5 4.3125-10.402 4.3125h-85.809v85.809c0 5.2578-2.8047 10.113-7.3555 12.742-4.5547 2.6289-10.164 2.6289-14.715 0-4.5547-2.6289-7.3555-7.4844-7.3555-12.742v-85.809h-85.809c-5.2578 0-10.117-2.8047-12.746-7.3555-2.625-4.5547-2.625-10.164 0-14.715 2.6289-4.5547 7.4883-7.3555 12.746-7.3555h85.809v-85.809c0-5.2578 2.8008-10.117 7.3555-12.746 4.5508-2.625 10.16-2.625 14.715 0 4.5508 2.6289 7.3555 7.4883 7.3555 12.746v85.809h85.809c3.9023 0 7.6445 1.5508 10.402 4.3086 2.7578 2.7617 4.3086 6.5039 4.3086 10.402z"/>
</svg>
