<?xml version="1.0" encoding="UTF-8"?>
<svg width="752pt" height="752pt" version="1.1" viewBox="0 0 752 752" xmlns="http://www.w3.org/2000/svg">
 <path d="m509.84 162.89h-267.69c-21.016 0.023437-41.164 8.3828-56.023 23.242-14.859 14.859-23.219 35.008-23.242 56.023v267.69c0.023437 21.016 8.3828 41.164 23.242 56.027 14.859 14.859 35.008 23.219 56.023 23.242h267.69c21.016-0.023437 41.168-8.3828 56.027-23.242s23.219-35.012 23.242-56.027v-267.69c-0.023437-21.016-8.3828-41.164-23.242-56.023-14.863-14.859-35.012-23.219-56.027-23.242zm49.844 79.266v25.695l-74.535 0.003907-55.75-75.543h80.441c13.215 0.015625 25.887 5.2695 35.23 14.617 9.3438 9.3438 14.602 22.012 14.613 35.227zm-166.85-49.844 55.746 75.543h-89.418l-55.742-75.543zm-200.52 49.844c0.015625-13.215 5.2695-25.883 14.617-35.227 9.3438-9.3477 22.012-14.602 35.227-14.617h24.691l55.754 75.543h-130.29zm317.53 317.53h-267.69c-13.215-0.011719-25.883-5.2695-35.227-14.613-9.3477-9.3438-14.602-22.016-14.617-35.23v-212.57h367.38v212.57c-0.011719 13.215-5.2695 25.887-14.613 35.23s-22.016 14.602-35.23 14.613zm-55.352-143.97-116.38-67.184c-2.9922-1.7305-6.5039-2.3477-9.9102-1.75-3.4062 0.60156-6.4922 2.3867-8.7148 5.0352-2.2227 2.6484-3.4375 6-3.4375 9.457v134.41c0 3.4609 1.2188 6.8086 3.4414 9.457 2.2227 2.6484 5.3086 4.4297 8.7148 5.0312s6.9141-0.019531 9.9062-1.7461l116.39-67.199 0.003906-0.003906c2.9961-1.7305 5.2852-4.457 6.4688-7.707 1.1836-3.25 1.1836-6.8125 0-10.062-1.1836-3.25-3.4727-5.9805-6.4688-7.707zm-109.03 54.461v-83.414l72.254 41.719z"/>
</svg>
