<?xml version="1.0" encoding="UTF-8"?>
<svg width="752pt" height="752pt" version="1.1" viewBox="0 0 752 752" xmlns="http://www.w3.org/2000/svg">
 <path d="m524.23 482.28-2.8828-2.9062c-15.609-15.629-24.352-36.832-24.301-58.918v-85.434c-0.003906-24.926-7.6953-49.242-22.027-69.633-14.332-20.387-34.609-35.859-58.059-44.305v-17.523 0.003906c0.11719-10.82-4.0977-21.234-11.707-28.926-7.6094-7.6914-17.977-12.02-28.797-12.02-10.816 0-21.188 4.3281-28.793 12.02-7.6094 7.6914-11.824 18.105-11.707 28.926v17.234-0.003906c-23.676 8.3047-44.184 23.758-58.691 44.223-14.508 20.469-22.297 44.938-22.293 70.027v85.434c0.058594 22.086-8.6797 43.285-24.285 58.918l-2.8828 2.9062c-3.2617 3.2852-5.0859 7.7266-5.0742 12.355 0.007812 4.625 1.8555 9.0586 5.1289 12.328 3.2773 3.2695 7.7148 5.1055 12.344 5.1055h271.62c4.625 0 9.0664-1.8359 12.34-5.1055 3.2773-3.2695 5.1211-7.7031 5.1328-12.328 0.011719-4.6289-1.8164-9.0703-5.0742-12.355zm-147.75-289.95c6.1875 0.003906 11.203 5.0195 11.207 11.211v10.973c-3.8711-0.37109-7.7578-0.55859-11.664-0.5625-3.5938 0-7.1836 0.16016-10.75 0.47266v-10.895c0.011719-6.1836 5.0234-11.191 11.207-11.199zm-110.95 290.45c12.266-18.465 18.781-40.152 18.723-62.32v-85.434c-0.050781-20.543 6.8086-40.504 19.48-56.672 12.676-16.168 30.418-27.602 50.379-32.457 14.656-3.5664 29.965-3.4961 44.59 0.19141 19.75 5.0547 37.258 16.539 49.758 32.641 12.504 16.105 19.293 35.91 19.297 56.297v85.434c-0.058594 22.168 6.457 43.855 18.719 62.32zm147.2 40.176h-73.453c-3.8828 0-7.6094 1.543-10.355 4.2891-2.7461 2.7461-4.2891 6.4727-4.2891 10.359 0 18.355 9.793 35.32 25.691 44.5 15.898 9.1758 35.484 9.1758 51.383 0 15.898-9.1797 25.691-26.145 25.691-44.5 0-3.8906-1.5469-7.6172-4.2969-10.367-2.75-2.7461-6.4805-4.2852-10.371-4.2812zm-36.727 36.727c-6.3125 0.003907-12.32-2.7031-16.504-7.4297h33.008c-4.1797 4.7266-10.191 7.4336-16.504 7.4297z"/>
</svg>
