<?xml version="1.0" encoding="UTF-8"?>
<svg width="752pt" height="752pt" version="1.1" viewBox="0 0 752 752" xmlns="http://www.w3.org/2000/svg">
 <path d="m512.46 588.97c-4.5391 0-8.8242-2.0977-11.605-5.6836l-124.47-159.77-125.27 159.82c-2.5234 3.2461-6.293 5.2812-10.391 5.6172s-8.1484-1.0625-11.168-3.8555c-3.0156-2.7891-4.7266-6.7188-4.7109-10.832v-396.53c0-3.8945 1.5469-7.6289 4.3008-10.383 2.7539-2.7539 6.4883-4.3008 10.379-4.3008h272.94c3.8906 0 7.625 1.5469 10.379 4.3008 2.7539 2.7539 4.3008 6.4883 4.3008 10.383v396.53-0.003906c0 3.8945-1.5469 7.6328-4.3008 10.391-2.75 2.7578-6.4844 4.3086-10.379 4.3164zm-258.22-396.54v339.25l110.61-141.13c2.7891-3.5547 7.0586-5.6328 11.574-5.6328 4.5312 0.011719 8.8008 2.1094 11.582 5.6836l109.75 140.87v-339.04z"/>
</svg>
