<?xml version="1.0" encoding="UTF-8"?>
<svg width="752pt" height="752pt" version="1.1" viewBox="0 0 752 752" xmlns="http://www.w3.org/2000/svg">
 <path d="m342.84 205.51c-75.676 0-137.33 61.652-137.33 137.33 0 75.676 61.652 137.33 137.33 137.33 32.73 0 62.793-11.57 86.426-30.781l92.938 92.934c5.5469 5.5469 14.578 5.5469 20.125 0s5.5469-14.43 0-19.977l-92.938-92.934c19.25-23.645 30.781-53.805 30.781-86.574 0-75.68-61.652-137.33-137.33-137.33zm0 28.414c60.32 0 108.92 48.598 108.92 108.92s-48.598 108.92-108.92 108.92-108.92-48.598-108.92-108.92 48.598-108.92 108.92-108.92z"/>
</svg>
