<?xml version="1.0" encoding="UTF-8"?>
<svg width="752pt" height="752pt" version="1.1" viewBox="0 0 752 752" xmlns="http://www.w3.org/2000/svg">
 <path d="m391.45 589.11h-30.906c-7.5-0.007812-14.695-2.9922-20-8.2969-5.3047-5.3047-8.2891-12.496-8.293-20v-16.484c-15.57-4.0117-30.496-10.195-44.34-18.371l-11.664 11.664c-5.3125 5.293-12.504 8.2656-20.004 8.2656s-14.691-2.9727-20.004-8.2656l-21.871-21.875c-5.293-5.3125-8.2656-12.508-8.2656-20.008s2.9727-14.695 8.2656-20.008l11.672-11.648c-8.1758-13.836-14.359-28.762-18.371-44.324h-16.484c-7.5039-0.007813-14.699-2.9922-20.004-8.3008-5.3047-5.3086-8.2891-12.504-8.293-20.008v-30.906c0.007813-7.5 2.9922-14.695 8.2969-20s12.496-8.2891 20-8.293h16.484c4.0117-15.566 10.195-30.488 18.371-44.328l-11.664-11.668v-0.003906c-5.293-5.3086-8.2656-12.504-8.2656-20.004 0-7.4961 2.9727-14.691 8.2656-20.004l21.875-21.871v0.003906c5.3125-5.2969 12.508-8.2695 20.008-8.2695s14.695 2.9727 20.008 8.2695l11.645 11.664c13.844-8.1758 28.766-14.359 44.332-18.371v-16.484c0.007812-7.5039 2.9922-14.699 8.3008-20.004 5.3047-5.3047 12.5-8.2891 20-8.293h30.906c7.5039 0.007813 14.695 2.9922 20 8.2969s8.2891 12.496 8.2969 20v16.484c15.566 4.0117 30.488 10.195 44.328 18.371l11.668-11.664c5.3125-5.293 12.508-8.2656 20.004-8.2656 7.5 0 14.695 2.9727 20.004 8.2656l21.871 21.875c5.2969 5.3125 8.2695 12.508 8.2695 20.008s-2.9727 14.695-8.2695 20.008l-11.664 11.645c8.1758 13.844 14.359 28.766 18.371 44.332h16.484c7.5039 0.007812 14.695 2.9922 20.004 8.3008 5.3047 5.3047 8.2852 12.5 8.293 20v30.906c-0.007812 7.5039-2.9922 14.695-8.2969 20-5.3047 5.3047-12.496 8.2891-20 8.2969h-16.484c-4.0117 15.566-10.195 30.488-18.371 44.328l11.664 11.668c5.293 5.3125 8.2656 12.508 8.2656 20.004 0 7.5-2.9727 14.695-8.2656 20.004l-21.875 21.871c-5.3125 5.2969-12.508 8.2695-20.008 8.2695s-14.695-2.9727-20.008-8.2695l-11.648-11.664c-13.836 8.1758-28.762 14.359-44.324 18.371v16.484c-0.007813 7.5039-2.9922 14.699-8.3008 20.004-5.3086 5.3047-12.504 8.2891-20.008 8.293zm-29.801-29.398h28.699v-27.184c-0.003906-3.4414 1.1992-6.7695 3.4023-9.4102 2.1992-2.6406 5.2578-4.4258 8.6406-5.0469 19.887-3.6367 38.777-11.461 55.41-22.957 2.8281-1.9531 6.25-2.8516 9.6758-2.5352 3.4219 0.3125 6.625 1.8164 9.0508 4.25l19.23 19.23 20.301-20.301-19.23-19.23 0.003907-0.003906c-2.4336-2.4258-3.9375-5.6289-4.25-9.0547-0.3125-3.4219 0.58203-6.8438 2.5352-9.6758 11.492-16.629 19.316-35.516 22.953-55.402 0.62109-3.3828 2.4062-6.4414 5.0469-8.6445 2.6445-2.1992 5.9727-3.4023 9.4141-3.3984h27.184v-28.699h-27.184c-3.4414 0.003906-6.7695-1.1992-9.4141-3.4023-2.6406-2.1992-4.4258-5.2578-5.0469-8.6406-3.6367-19.891-11.461-38.777-22.957-55.41-1.9531-2.8281-2.8516-6.2539-2.5352-9.6758 0.3125-3.4219 1.8164-6.625 4.25-9.0547l19.23-19.23-20.301-20.301-19.23 19.23h-0.003906c-2.4258 2.4336-5.6289 3.9375-9.0547 4.25-3.4219 0.3125-6.8438-0.58594-9.6758-2.5352-16.633-11.496-35.52-19.32-55.406-22.957-3.3828-0.61719-6.4414-2.4023-8.6406-5.0469-2.1992-2.6406-3.4023-5.9727-3.3984-9.4102v-27.184h-28.699v27.184c0.003906 3.4375-1.1992 6.7695-3.4023 9.4141-2.1992 2.6406-5.2578 4.4258-8.6406 5.043-19.891 3.6406-38.777 11.465-55.41 22.961-2.8281 1.9531-6.2539 2.8477-9.6758 2.5352-3.4219-0.3125-6.625-1.8164-9.0547-4.25l-19.23-19.23-20.301 20.301 19.23 19.23c2.4336 2.4297 3.9375 5.6328 4.25 9.0547 0.3125 3.4258-0.58594 6.8477-2.5352 9.6758-11.496 16.633-19.32 35.52-22.957 55.406-0.61719 3.3828-2.4023 6.4414-5.043 8.6406-2.6445 2.2031-5.9766 3.4062-9.4141 3.4023h-27.184v28.699h27.184c3.4375-0.003906 6.7695 1.1992 9.4102 3.3984 2.6445 2.1992 4.4297 5.2578 5.0469 8.6406 3.6367 19.887 11.465 38.773 22.961 55.406 1.9531 2.832 2.8477 6.2539 2.5352 9.6758-0.3125 3.4258-1.8164 6.6289-4.25 9.0547l-19.23 19.23 20.301 20.301 19.23-19.23v0.003906c2.4297-2.4336 5.6328-3.9375 9.0547-4.25 3.4258-0.31641 6.8477 0.58203 9.6758 2.5352 16.633 11.492 35.52 19.32 55.406 22.957 3.3828 0.62109 6.4414 2.4062 8.6406 5.0469 2.2031 2.6445 3.4062 5.9727 3.4023 9.4141zm14.348-67.969c-30.695 0-60.137-12.195-81.84-33.902-21.707-21.707-33.902-51.145-33.902-81.844 0-30.695 12.195-60.137 33.902-81.84 21.703-21.707 51.145-33.902 81.84-33.902 30.699 0 60.137 12.195 81.844 33.902 21.707 21.703 33.902 51.145 33.902 81.84-0.035156 30.688-12.242 60.105-33.941 81.805-21.699 21.699-51.117 33.906-81.805 33.941zm0-202.09v-0.003906c-22.898 0-44.859 9.0977-61.051 25.293-16.195 16.191-25.293 38.152-25.293 61.051 0 22.902 9.0977 44.863 25.293 61.055 16.191 16.191 38.152 25.289 61.051 25.289 22.902 0 44.863-9.0977 61.055-25.289 16.191-16.191 25.289-38.152 25.289-61.055-0.023438-22.891-9.1289-44.836-25.316-61.023s-38.133-25.293-61.027-25.32z"/>
</svg>
