<?xml version="1.0" encoding="UTF-8"?>
<svg width="752pt" height="752pt" version="1.1" viewBox="0 0 752 752" xmlns="http://www.w3.org/2000/svg">
 <path d="m509.85 162.89h-267.7c-21.016 0.023437-41.16 8.3828-56.02 23.242-14.859 14.859-23.219 35.004-23.242 56.02v267.7c0.023437 21.016 8.3828 41.164 23.242 56.023 14.859 14.859 35.004 23.219 56.02 23.242h144.41c3.9102 0.007813 7.6602-1.543 10.418-4.3086l187.82-187.84c2.7656-2.7617 4.3164-6.5117 4.3086-10.422v-144.39c-0.023437-21.016-8.3828-41.16-23.242-56.02-14.859-14.859-35.008-23.219-56.023-23.242zm-317.54 346.96v-267.7c0.015625-13.211 5.2734-25.883 14.617-35.223 9.3398-9.3438 22.012-14.602 35.223-14.617h267.7c13.215 0.015625 25.883 5.2734 35.227 14.617 9.3438 9.3398 14.602 22.012 14.613 35.223v129.7h-108.57c-21.016 0.023438-41.164 8.3828-56.023 23.242s-23.219 35.008-23.242 56.023v12.996-0.003906c-22.641-1.0898-43.996-10.848-59.645-27.25-15.645-16.398-24.387-38.191-24.414-60.859 0.070312-3.9453-1.4492-7.7578-4.2148-10.574-2.7656-2.8164-6.5508-4.4023-10.496-4.4023-3.9492 0-7.7305 1.5859-10.5 4.4023-2.7656 2.8164-4.2852 6.6289-4.2148 10.574 0.039062 30.469 11.879 59.738 33.043 81.66 21.16 21.918 49.996 34.785 80.441 35.895v66.133h-129.7c-13.211-0.011719-25.883-5.2695-35.223-14.613-9.3438-9.3438-14.602-22.012-14.617-35.227zm208.96-58.723h0.003906c0.011718-13.215 5.2656-25.887 14.609-35.23 9.3438-9.3477 22.016-14.602 35.23-14.617h87.77l-137.61 137.61zm-84.418-184.17c0-11.609-4.6094-22.746-12.82-30.957-8.207-8.2109-19.344-12.824-30.953-12.824-11.613 0-22.746 4.6094-30.957 12.82-8.2109 8.2109-12.824 19.344-12.824 30.957 0 11.609 4.6094 22.746 12.82 30.957 8.2109 8.2109 19.348 12.82 30.957 12.82 11.605-0.011718 22.73-4.6289 30.938-12.836 8.207-8.2031 12.824-19.332 12.84-30.938zm-58.129 0h0.003907c-0.007813-3.8086 1.5-7.4609 4.1875-10.16 2.6914-2.6953 6.3438-4.2109 10.152-4.2148 3.8086-0.003906 7.4609 1.5039 10.156 4.1953 2.6953 2.6914 4.2109 6.3438 4.2109 10.152 0 3.8086-1.5117 7.4609-4.2031 10.156-2.6953 2.6914-6.3477 4.2031-10.156 4.2031-3.8008-0.003906-7.4453-1.5156-10.133-4.2031-2.6914-2.6836-4.207-6.3281-4.2148-10.129zm220.21 43.773h0.003906c11.609 0 22.746-4.6094 30.953-12.82 8.2109-8.2109 12.824-19.348 12.824-30.957 0-11.613-4.6133-22.746-12.824-30.957-8.2109-8.2109-19.348-12.82-30.957-12.82-11.613 0-22.746 4.6133-30.957 12.824-8.207 8.2109-12.82 19.348-12.82 30.957 0.015626 11.605 4.6289 22.73 12.832 30.934 8.2031 8.207 19.324 12.824 30.93 12.84zm0-58.129 0.003906 0.003906c3.8047-0.003906 7.457 1.5078 10.148 4.1992 2.6953 2.6914 4.207 6.3438 4.207 10.152 0.003907 3.8047-1.5078 7.457-4.1992 10.148-2.6914 2.6953-6.3438 4.207-10.152 4.207-3.8047 0-7.457-1.5117-10.148-4.2031-2.6953-2.6914-4.207-6.3438-4.207-10.152 0.003906-3.8008 1.5156-7.4453 4.1992-10.137 2.6875-2.6914 6.3281-4.207 10.133-4.2148z"/>
</svg>
