<?xml version="1.0" encoding="UTF-8"?>
<svg width="752pt" height="752pt" version="1.1" viewBox="0 0 752 752" xmlns="http://www.w3.org/2000/svg">
 <path d="m376 357.88c18.902-0.003906 37.031-7.5117 50.395-20.879s20.871-31.492 20.871-50.395c0-18.902-7.5117-37.027-20.875-50.395-13.367-13.363-31.492-20.871-50.395-20.871s-37.031 7.5078-50.395 20.875c-13.367 13.363-20.875 31.492-20.875 50.395 0.023438 18.895 7.5391 37.012 20.902 50.371 13.359 13.363 31.477 20.875 50.371 20.898zm0-113.06c11.09-0.003906 21.727 4.4023 29.566 12.242s12.246 18.473 12.246 29.562-4.4023 21.723-12.242 29.566c-7.8438 7.8398-18.477 12.242-29.566 12.242s-21.723-4.4062-29.562-12.246-12.246-18.477-12.242-29.566c0.011719-11.082 4.4219-21.707 12.258-29.543 7.8359-7.8359 18.461-12.246 29.543-12.258zm213.11 131.18c0-42.148-12.5-83.352-35.914-118.4-23.418-35.047-56.703-62.359-95.645-78.492-38.941-16.129-81.789-20.348-123.13-12.125-41.34 8.2227-79.312 28.52-109.12 58.324-38.508 38.508-60.809 90.293-62.332 144.73-1.5273 54.434 17.848 107.39 54.137 147.99 4.5664 5.1094 9.4727 10.066 14.531 14.734 39.34 36.23 90.867 56.34 144.35 56.34 53.48 0 105.01-20.109 144.35-56.34 5.6094-5.1562 10.938-10.609 15.953-16.34 34.062-38.844 52.836-88.754 52.82-140.42zm-213.11-183.65c43.02 0.003907 84.668 15.109 117.69 42.676 33.023 27.57 55.32 65.855 63.004 108.18 7.6875 42.324 0.27344 86.004-20.949 123.42-6.5547-22.82-20.348-42.891-39.301-57.188-18.957-14.297-42.047-22.043-65.789-22.074h-108.01c-24.016 0.03125-47.352 7.957-66.418 22.559-19.066 14.602-32.801 35.062-39.09 58.238-21.684-37.387-29.488-81.223-22.039-123.8 7.4453-42.57 29.668-81.156 62.758-108.96s74.922-43.051 118.14-43.055zm134.5 308.72c-3.2266 3.4648-6.6016 6.8203-10.086 10.02h-0.003906c-33.898 31.227-78.305 48.562-124.39 48.562s-90.496-17.336-124.39-48.562c-3.0156-2.7734-5.9531-5.6836-8.7695-8.6289l-0.003906-5.8086c0.027344-21.156 8.4414-41.441 23.402-56.402 14.957-14.961 35.242-23.379 56.398-23.406h108.01c21.164 0.019532 41.457 8.4297 56.426 23.395 14.969 14.961 23.391 35.25 23.418 56.414z"/>
</svg>
